<svg xmlns="http://www.w3.org/2000/svg" width="200" height="412" viewBox="0 0 200 412" fill="none">
  <path opacity="0.1" d="M198.5 387.07L193.148 384.685H192.593V266.32H193.148L198.5 263.934C200.5 263.042 200.5 260.492 198.5 259.6L193.148 257.215H192.593V249.931V235.363H191.148C193.111 233.214 193.056 229.918 190.963 227.86C188.796 225.729 185.278 225.729 183.111 227.86C181.019 229.918 180.963 233.214 182.926 235.363H181.481V249.931H174.074V157.97H175.463L180.148 155.584C181.907 154.692 181.907 152.143 180.148 151.25L175.463 148.865H174.074V142.491V129.744H172.63C174.593 127.596 174.537 124.299 172.444 122.242C170.278 120.111 166.759 120.111 164.593 122.242C162.5 124.299 162.444 127.596 164.407 129.744H162.963V142.491H137.037V129.744H135.593C137.556 127.596 137.5 124.299 135.407 122.242C134.315 121.167 132.907 120.639 131.481 120.639V84.2192H140.741L116.667 71.4722V44.1571H116C122.444 44.1571 128.722 42.0994 133.87 38.2935L140.741 33.2311C120.426 34.961 100.056 30.7181 82.2037 21.0485L54.3704 1.10855C52.3148 -0.366467 49.537 -0.366467 47.4815 1.09034L18.8148 21.431C1.22223 30.9548 -18.8889 35.0521 -38.8889 33.2311L-29.2963 40.2966C-25.9074 42.7913 -21.7778 44.1571 -17.537 44.1571H-16.6667V71.4722L-38.8889 84.2192H-29.6296V120.639C-31.0556 120.639 -32.4815 121.167 -33.5556 122.242C-35.6481 124.299 -35.7037 127.596 -33.7407 129.744H-35.1852V142.491H-61.1111V129.744H-62.5556C-60.5926 127.596 -60.6481 124.299 -62.7407 122.242C-64.9074 120.111 -68.4259 120.111 -70.5926 122.242C-72.6852 124.299 -72.7407 127.596 -70.7778 129.744H-72.2222V142.491V148.865H-75.463L-80.1481 151.25C-81.9074 152.143 -81.9074 154.692 -80.1481 155.584L-75.463 157.97H-72.2222V249.931H-79.6296V235.363H-81.0741C-79.1111 233.214 -79.1667 229.918 -81.2593 227.86C-83.4259 225.729 -86.9444 225.729 -89.1111 227.86C-91.2037 229.918 -91.2593 233.214 -89.2963 235.363H-90.7407V249.931V257.215H-93.1481L-98.5 259.6C-100.5 260.492 -100.5 263.042 -98.5 263.934L-93.1481 266.32H-90.7407V384.685H-93.1481L-98.5 387.07C-100.5 387.963 -100.5 390.512 -98.5 391.404L-93.1481 393.79H-90.7407V412H192.593V393.79H193.148L198.5 391.404C200.5 390.512 200.5 387.963 198.5 387.07ZM-12.963 381.043H-51.8519V330.619C-51.8519 316.27 -47.4259 302.758 -39.8889 294.09L-36.6111 290.32C-34.1296 287.461 -30.6852 287.461 -28.2037 290.32L-24.9259 294.09C-17.3889 302.758 -12.963 316.27 -12.963 330.619V381.043ZM-1.85185 229.9H-40.7407V202.111C-40.7407 190.584 -36.3148 179.713 -28.7778 172.738L-25.5 169.715C-23.0185 167.421 -19.5741 167.421 -17.0926 169.715L-13.8148 172.738C-6.27777 179.713 -1.85185 190.584 -1.85185 202.111V229.9ZM81.4815 381.043H16.6667V330.619C16.6667 316.27 24.037 302.758 36.6111 294.09L42.0741 290.32C46.2222 287.461 51.9444 287.461 56.0741 290.32L61.537 294.09C74.1111 302.758 81.4815 316.288 81.4815 330.619V381.043ZM38.7407 172.738L43.2778 169.715C46.7037 167.421 51.4444 167.421 54.8704 169.715L59.4074 172.738C69.8148 179.713 75.9259 190.584 75.9259 202.111V229.9H22.2222V202.111C22.2222 190.584 28.3333 179.713 38.7407 172.738ZM33.3333 113.355C33.3333 106.308 39.1296 100.608 46.2963 100.608C53.463 100.608 59.2593 106.308 59.2593 113.355C59.2593 120.403 53.463 126.102 46.2963 126.102C39.1296 126.102 33.3333 120.403 33.3333 113.355ZM96.2963 62.3671H3.7037V51.4411H96.2963V62.3671ZM101.852 202.111C101.852 190.584 106.278 179.713 113.815 172.738L117.093 169.715C119.574 167.421 123.019 167.421 125.5 169.715L128.778 172.738C136.315 179.713 140.741 190.584 140.741 202.111V229.9H101.852V202.111ZM148.148 381.043H109.259V330.619C109.259 316.27 113.685 302.758 121.222 294.09L124.5 290.32C126.981 287.461 130.426 287.461 132.907 290.32L136.185 294.09C143.722 302.758 148.148 316.27 148.148 330.619V381.043Z" fill="#D8981C"/>
</svg>