<svg width="32" height="32" viewBox="0 0 32 32" fill="none" xmlns="http://www.w3.org/2000/svg"><circle cx="16" cy="16" r="16" fill="#EFB138"></circle><path d="M16 8C11.6 8 8 11.6 8 16C8 19.4 10.1333 22.2667 13.0667 23.4667C13 22.8667 12.9333 21.8667 13.0667 21.2C13.2 20.6 14 17.2 14 17.2C14 17.2 13.8 16.6667 13.8 16C13.8 14.8667 14.4667 14.0667 15.2667 14.0667C15.9333 14.0667 16.2667 14.6 16.2667 15.2C16.2667 15.8667 15.8 16.9333 15.6 17.8667C15.4 18.6667 16 19.3333 16.8 19.3333C18.2 19.3333 19.3333 17.8667 19.3333 15.6667C19.3333 13.7333 17.9333 12.4 16 12.4C13.7333 12.4 12.4 14.1333 12.4 15.8667C12.4 16.5333 12.6667 17.2667 13 17.6667C13.0667 17.7333 13.0667 17.8 13.0667 17.8667C13 18.1333 12.8667 18.6667 12.8667 18.8C12.8 18.9333 12.7333 19 12.6 18.9333C11.6 18.4667 11 17 11 15.8667C11 13.3333 12.8667 11 16.2667 11C19.0667 11 21.2 13 21.2 15.6C21.2 18.3333 19.4667 20.6 17.0667 20.6C16.2667 20.6 15.4667 20.2 15.2 19.6667C15.2 19.6667 14.8 21.2 14.7333 21.6C14.5333 22.2667 14.0667 23.1333 13.7333 23.6667C14.4 23.8667 15.2 24 16 24C20.4 24 24 20.4 24 16C24 11.6 20.4 8 16 8Z" fill="white"></path></svg>