<svg width="44" height="44" viewBox="0 0 44 44" fill="none" xmlns="http://www.w3.org/2000/svg"><path d="M25.75 14.5C24.3 14.5 22.9084 15.175 22 16.2417C21.0917 15.175 19.7 14.5 18.25 14.5C15.6834 14.5 13.6667 16.5167 13.6667 19.0833C13.6667 22.2333 16.5 24.8 20.7917 28.7L22 29.7917L23.2084 28.6917C27.5 24.8 30.3334 22.2333 30.3334 19.0833C30.3334 16.5167 28.3167 14.5 25.75 14.5ZM22.0834 27.4583L22 27.5417L21.9167 27.4583C17.95 23.8667 15.3334 21.4917 15.3334 19.0833C15.3334 17.4167 16.5834 16.1667 18.25 16.1667C19.5334 16.1667 20.7834 16.9917 21.225 18.1333H22.7834C23.2167 16.9917 24.4667 16.1667 25.75 16.1667C27.4167 16.1667 28.6667 17.4167 28.6667 19.0833C28.6667 21.4917 26.05 23.8667 22.0834 27.4583Z" fill="#9E9E9E"></path><rect x="1" y="1" width="42" height="42" rx="21" stroke="#9E9E9E" stroke-width="2"></rect></svg>