<svg width="32" height="32" viewBox="0 0 32 32" fill="none" xmlns="http://www.w3.org/2000/svg"><circle cx="16" cy="16" r="16" fill="#EFB138"></circle><path d="M16 9.44133C18.136 9.44133 18.3893 9.44933 19.2327 9.488C20.1433 9.52933 20.988 9.712 21.638 10.362C22.288 11.012 22.4707 11.8567 22.512 12.7673C22.5507 13.6107 22.5587 13.864 22.5587 16C22.5587 18.136 22.5507 18.3893 22.512 19.2327C22.4707 20.1433 22.288 20.988 21.638 21.638C20.988 22.288 20.1433 22.4707 19.2327 22.512C18.3893 22.5507 18.136 22.5587 16 22.5587C13.864 22.5587 13.6107 22.5507 12.7673 22.512C11.8567 22.4707 11.012 22.288 10.362 21.638C9.712 20.988 9.52933 20.1433 9.488 19.2327C9.44933 18.3893 9.44133 18.136 9.44133 16C9.44133 13.864 9.44933 13.6107 9.488 12.7673C9.52933 11.8567 9.712 11.012 10.362 10.362C11.012 9.712 11.8567 9.52933 12.7673 9.488C13.6107 9.44933 13.864 9.44133 16 9.44133ZM16 8C13.8273 8 13.5547 8.00933 12.7013 8.048C11.4013 8.10733 10.2593 8.426 9.34267 9.34267C8.426 10.2593 8.10733 11.4013 8.048 12.7013C8.00933 13.5547 8 13.8273 8 16C8 18.1727 8.00933 18.4453 8.048 19.2987C8.10733 20.5987 8.426 21.7407 9.34267 22.6573C10.2593 23.574 11.4013 23.8927 12.7013 23.952C13.5547 23.9907 13.8273 24 16 24C18.1727 24 18.4453 23.9907 19.2987 23.952C20.5987 23.8927 21.7407 23.574 22.6573 22.6573C23.574 21.7407 23.8927 20.5987 23.952 19.2987C23.9907 18.4453 24 18.1727 24 16C24 13.8273 23.9907 13.5547 23.952 12.7013C23.8927 11.4013 23.574 10.2593 22.6573 9.34267C21.7407 8.426 20.5987 8.10733 19.2987 8.048C18.4453 8.00933 18.1727 8 16 8Z" fill="white"></path><path d="M16.0001 11.8921C13.7314 11.8921 11.8921 13.7314 11.8921 16.0001C11.8921 18.2688 13.7314 20.1081 16.0001 20.1081C18.2688 20.1081 20.1081 18.2688 20.1081 16.0001C20.1081 13.7314 18.2688 11.8921 16.0001 11.8921ZM16.0001 18.6668C14.5274 18.6668 13.3334 17.4728 13.3334 16.0001C13.3334 14.5274 14.5274 13.3334 16.0001 13.3334C17.4728 13.3334 18.6668 14.5274 18.6668 16.0001C18.6668 17.4728 17.4728 18.6668 16.0001 18.6668Z" fill="white"></path><path d="M20.2707 12.6895C20.8009 12.6895 21.2307 12.2597 21.2307 11.7295C21.2307 11.1993 20.8009 10.7695 20.2707 10.7695C19.7405 10.7695 19.3107 11.1993 19.3107 11.7295C19.3107 12.2597 19.7405 12.6895 20.2707 12.6895Z" fill="white"></path></svg>