<svg xmlns="http://www.w3.org/2000/svg" width="80" height="80" viewBox="0 0 80 80" fill="none">
  <g clip-path="url(#clip0)">
    <path d="M74.897 48.0103H80V21.0522H74.897V11.6772H65.6263C59.1628 4.245 49.8742 0 40 0C30.1134 0 20.8389 4.24266 14.3752 11.6772H5.10297V21.0522H0V48.0102H5.10297V75.3125H0V80H80V75.3125H74.897V48.0103ZM75.3125 43.3228H64.9094V25.7397H75.3125V43.3228ZM30.0405 25.7397V43.3227H19.6372V25.7397H30.0405ZM34.728 25.7397H45.1311V43.3227H34.728V25.7397ZM49.8186 25.7397H60.2219V43.3227H49.8186V25.7397ZM40 4.6875C47.0364 4.6875 53.7269 7.19031 58.9831 11.6772H21.0156C26.2698 7.18906 32.9544 4.6875 40 4.6875ZM9.79047 16.3647H70.2095V21.0522H9.79047V16.3647ZM4.6875 25.7397H14.9498V43.3227H4.6875V25.7397ZM9.79047 57.3853H20.975V65.9375H9.79047V57.3853ZM35.0375 75.3125V57.3853H44.9627V75.3125H35.0375ZM70.2095 75.3125H49.6502V52.6978H30.35V75.3125H9.79047V70.625H25.6625V52.6978H9.79047V48.0103H70.2095V52.6978H54.3377V70.625H70.2095V75.3125ZM70.2095 57.3853V65.9375H59.0252V57.3853H70.2095Z" fill="white"/>
  </g>
  <defs>
    <clipPath id="clip0">
      <rect width="80" height="80" fill="white"/>
    </clipPath>
  </defs>
</svg>