<svg xmlns="http://www.w3.org/2000/svg" width="80" height="80" viewBox="0 0 80 80" fill="none">
  <g clip-path="url(#clip0)">
    <path d="M78.3334 35.0108H40V3.34424H36.6667V35.0109H30V5.01096H26.6667V35.0109H20V6.67752H16.6667V35.0108H1.66672C0.74625 35.0108 0 35.757 0 36.6775C0.00046875 50.9695 7.62391 64.1761 20 71.3242V78.3442C20 79.2647 20.7463 80.0109 21.6667 80.0109H58.3334C59.2539 80.0109 60.0002 79.2647 60.0002 78.3442V71.3242C72.3763 64.1761 79.9998 50.9695 80.0002 36.6775C80 35.757 79.2539 35.0108 78.3334 35.0108ZM76.3239 41.6773H71.6667V45.0106H75.7067C75.4431 46.1397 75.127 47.2519 74.7603 48.3439H68.3333V43.3439C68.3333 42.4234 67.587 41.6772 66.6666 41.6772H56.6666C55.7461 41.6772 54.9998 42.4234 54.9998 43.3439V50.0106C54.9998 50.9311 55.7461 51.6773 56.6666 51.6773H61.6666V48.3442H58.3333V45.0109H65V50.0109C65 50.9314 65.7462 51.6777 66.6667 51.6777H73.4564C70.2217 58.8886 64.6908 64.9822 57.535 68.8808C56.9995 69.173 56.6666 69.7342 56.6667 70.3441V76.6773H23.3333V71.6773H51.6667V68.3442H21.6667V68.4366C14.8963 64.5262 9.65453 58.62 6.54172 51.6775H8.33344V48.3442H5.23812C4.87156 47.2522 4.55578 46.14 4.29234 45.0109H11.6667V50.0109C11.6667 50.9314 12.413 51.6777 13.3334 51.6777H23.3334C24.2539 51.6777 25.0002 50.9314 25.0002 50.0109V43.3442C25.0002 42.4238 24.2539 41.6775 23.3334 41.6775H18.3334V45.0108H21.6667V48.3441H15V43.3441C15 42.4236 14.2537 41.6773 13.3333 41.6773H3.67563C3.52437 40.5775 3.42109 39.4656 3.37 38.3441H76.63C76.5788 39.4656 76.4753 40.5775 76.3239 41.6773Z" fill="white"/>
    <path d="M50.0007 41.6774H45.0007V45.0107H48.334V48.344H41.6674V43.344C41.6674 42.4235 40.9212 41.6772 40.0007 41.6772H30.0007C29.0802 41.6772 28.334 42.4235 28.334 43.344V50.0107C28.334 50.9311 29.0802 51.6774 30.0007 51.6774H35.0007V48.3441H31.6674V45.0108H38.3341V50.0108C38.3341 50.9313 39.0804 51.6776 40.0009 51.6776H50.0009C50.9213 51.6776 51.6676 50.9313 51.6676 50.0108V43.3441C51.6674 42.4237 50.9212 41.6774 50.0007 41.6774Z" fill="white"/>
    <path d="M24.9993 5.01147H21.666V33.3443H24.9993V5.01147Z" fill="white"/>
    <path d="M34.9993 3.34424H31.666V33.3442H34.9993V3.34424Z" fill="white"/>
    <path d="M78.1991 0.000112731L41.5264 3.35107L41.8298 6.67147L78.5025 3.32051L78.1991 0.000112731Z" fill="white"/>
    <path d="M78.1962 4.99328L41.5234 8.34424L41.8268 11.6646L78.4996 8.31367L78.1962 4.99328Z" fill="white"/>
  </g>
  <defs>
    <clipPath id="clip0">
      <rect width="80.0002" height="80" fill="white"/>
    </clipPath>
  </defs>
</svg>