<svg xmlns="http://www.w3.org/2000/svg" width="80" height="80" viewBox="0 0 80 80" fill="none">
  <path d="M77.6562 42.3435C78.9506 42.3435 80 41.2941 80 39.9997V25.819C80 24.5246 78.9506 23.4752 77.6562 23.4752H68.7906V11.6382C68.7906 10.3438 67.7412 9.29443 66.4469 9.29443H2.34375C1.04937 9.29443 0 10.3438 0 11.6382V25.819C0 27.1133 1.04937 28.1627 2.34375 28.1627H11.2095V37.656H2.34375C1.04937 37.656 0 38.7054 0 39.9997V54.1807C0 55.4751 1.04937 56.5244 2.34375 56.5244H11.2095V68.3615C11.2095 69.6558 12.2589 70.7052 13.5533 70.7052H77.6562C78.9506 70.7052 80 69.6558 80 68.3615V54.1807C80 52.8863 78.9506 51.8369 77.6562 51.8369H68.7906V42.3435H77.6562ZM62.633 28.1627V37.656H28.6023V28.1627H62.633ZM75.3125 37.656H67.3205V28.1627H75.3125V37.656ZM64.1031 23.4752H57.7217V13.9819H64.1031V23.4752ZM4.6875 13.9819H53.0342V23.4752H4.6875V13.9819ZM15.897 28.1627H23.9148V37.656H15.897V28.1627ZM4.6875 42.3435H17.7705V51.8369H4.6875V42.3435ZM15.897 56.5243H19.9513C20.0053 56.528 20.0594 56.5326 20.1144 56.5326C20.1694 56.5326 20.2234 56.528 20.2775 56.5243H53.6411V66.0176H15.897V56.5243ZM64.4745 66.0176H58.3286V56.5243H64.4745V66.0176ZM75.3125 66.0176H69.162V56.5243H75.3125V66.0176ZM64.1031 51.8368H22.458V42.3435H64.1031V51.8368Z" fill="white"/>
</svg>