<svg xmlns="http://www.w3.org/2000/svg" width="80" height="80" viewBox="0 0 80 80" fill="none">
  <path d="M23.5938 9.375H28.2812V14.0625H23.5938V9.375Z" fill="white"/>
  <path d="M32.9688 9.375H37.6562V14.0625H32.9688V9.375Z" fill="white"/>
  <path d="M42.3438 9.375H47.0312V14.0625H42.3438V9.375Z" fill="white"/>
  <path d="M51.7188 9.375H56.4062V14.0625H51.7188V9.375Z" fill="white"/>
  <path d="M23.5938 18.75H28.2812V23.4375H23.5938V18.75Z" fill="white"/>
  <path d="M32.9688 18.75H37.6562V23.4375H32.9688V18.75Z" fill="white"/>
  <path d="M42.3438 18.75H47.0312V23.4375H42.3438V18.75Z" fill="white"/>
  <path d="M51.7188 18.75H56.4062V23.4375H51.7188V18.75Z" fill="white"/>
  <path d="M23.5938 28.125H28.2812V32.8125H23.5938V28.125Z" fill="white"/>
  <path d="M32.9688 28.125H37.6562V32.8125H32.9688V28.125Z" fill="white"/>
  <path d="M42.3438 28.125H47.0312V32.8125H42.3438V28.125Z" fill="white"/>
  <path d="M51.7188 28.125H56.4062V32.8125H51.7188V28.125Z" fill="white"/>
  <path d="M23.5938 37.5H28.2812V42.1875H23.5938V37.5Z" fill="white"/>
  <path d="M32.9688 37.5H37.6562V42.1875H32.9688V37.5Z" fill="white"/>
  <path d="M42.3438 37.5H47.0312V42.1875H42.3438V37.5Z" fill="white"/>
  <path d="M51.7188 37.5H56.4062V42.1875H51.7188V37.5Z" fill="white"/>
  <path d="M23.5938 46.875H28.2812V51.5625H23.5938V46.875Z" fill="white"/>
  <path d="M32.9688 46.875H37.6562V51.5625H32.9688V46.875Z" fill="white"/>
  <path d="M42.3438 46.875H47.0312V51.5625H42.3438V46.875Z" fill="white"/>
  <path d="M51.7188 46.875H56.4062V51.5625H51.7188V46.875Z" fill="white"/>
  <path d="M65.7812 18.75V0H14.2188V18.75H0V80H80V18.75H65.7812ZM14.2188 75.3125H4.6875V23.4375H14.2188V75.3125ZM35.3125 75.3125V60.9375H44.6875V75.3125H35.3125ZM61.0938 75.3125H49.375V56.25H30.625V75.3125H18.9062C18.9062 73.4595 18.9062 5.3975 18.9062 4.6875H61.0938V75.3125ZM75.3125 75.3125H65.7812V23.4375H75.3125V75.3125Z" fill="white"/>
</svg>