<svg width="180" height="45" viewBox="0 0 180 45" fill="none" xmlns="http://www.w3.org/2000/svg"><rect width="180" height="45" rx="22.5" fill="#516FA1"></rect><path d="M59.4953 28H61.648V23.794H65.7893V22.0192H61.648V19.593H66.2368V17.8182H59.4953V28ZM69.7268 28.1442C70.8554 28.1442 71.5862 27.652 71.9591 26.9411H72.0187V28H74.0273V22.8494C74.0273 21.0298 72.4861 20.2642 70.7858 20.2642C68.9562 20.2642 67.7531 21.1392 67.4598 22.5312L69.4186 22.6903C69.5628 22.1832 70.0152 21.8104 70.7758 21.8104C71.4967 21.8104 71.9094 22.1733 71.9094 22.7997V22.8295C71.9094 23.3217 71.3873 23.3864 70.0599 23.5156C68.5486 23.6548 67.1913 24.1619 67.1913 25.8672C67.1913 27.3786 68.2702 28.1442 69.7268 28.1442ZM70.3334 26.6825C69.6821 26.6825 69.2148 26.3793 69.2148 25.7976C69.2148 25.201 69.7069 24.9077 70.4527 24.8033C70.915 24.7386 71.6707 24.6293 71.9243 24.4602V25.2706C71.9243 26.071 71.2631 26.6825 70.3334 26.6825ZM79.1206 28.1491C81.154 28.1491 82.4317 26.956 82.5312 25.201H80.5326C80.4083 26.0163 79.8714 26.4737 79.1455 26.4737C78.1562 26.4737 77.5148 25.6435 77.5148 24.1818C77.5148 22.7401 78.1611 21.9148 79.1455 21.9148C79.9211 21.9148 80.4182 22.4268 80.5326 23.1875H82.5312C82.4417 21.4226 81.1043 20.2642 79.1107 20.2642C76.7939 20.2642 75.3621 21.87 75.3621 24.2116C75.3621 26.5334 76.7691 28.1491 79.1206 28.1491ZM87.3673 28.1491C89.2565 28.1491 90.5292 27.2294 90.8275 25.8125L88.8687 25.6832C88.6549 26.2649 88.108 26.5682 87.4021 26.5682C86.3431 26.5682 85.672 25.8672 85.672 24.7287V24.7237H90.8722V24.142C90.8722 21.5469 89.3012 20.2642 87.2828 20.2642C85.0356 20.2642 83.5789 21.8601 83.5789 24.2166C83.5789 26.6378 85.0157 28.1491 87.3673 28.1491ZM85.672 23.4112C85.7167 22.5412 86.3779 21.8452 87.3176 21.8452C88.2373 21.8452 88.8737 22.5014 88.8786 23.4112H85.672ZM92.2941 28H94.3822V26.777H94.4767C94.77 27.4134 95.4113 28.1243 96.6443 28.1243C98.3843 28.1243 99.7416 26.7472 99.7416 24.1918C99.7416 21.5668 98.3247 20.2642 96.6492 20.2642C95.3715 20.2642 94.76 21.0249 94.4767 21.6463H94.412V17.8182H92.2941V28ZM94.3673 24.1818C94.3673 22.8196 94.944 21.9496 95.9731 21.9496C97.0221 21.9496 97.5789 22.8594 97.5789 24.1818C97.5789 25.5142 97.0122 26.4389 95.9731 26.4389C94.9539 26.4389 94.3673 25.544 94.3673 24.1818ZM104.605 28.1491C106.922 28.1491 108.364 26.5632 108.364 24.2116C108.364 21.8452 106.922 20.2642 104.605 20.2642C102.288 20.2642 100.847 21.8452 100.847 24.2116C100.847 26.5632 102.288 28.1491 104.605 28.1491ZM104.615 26.5085C103.546 26.5085 102.999 25.5291 102.999 24.1967C102.999 22.8643 103.546 21.88 104.615 21.88C105.664 21.88 106.211 22.8643 106.211 24.1967C106.211 25.5291 105.664 26.5085 104.615 26.5085ZM113.191 28.1491C115.508 28.1491 116.949 26.5632 116.949 24.2116C116.949 21.8452 115.508 20.2642 113.191 20.2642C110.874 20.2642 109.432 21.8452 109.432 24.2116C109.432 26.5632 110.874 28.1491 113.191 28.1491ZM113.201 26.5085C112.132 26.5085 111.585 25.5291 111.585 24.1967C111.585 22.8643 112.132 21.88 113.201 21.88C114.25 21.88 114.797 22.8643 114.797 24.1967C114.797 25.5291 114.25 26.5085 113.201 26.5085ZM118.327 28H120.445V25.5739L121.016 24.9226L123.099 28H125.58L122.602 23.6697L125.436 20.3636H123.005L120.559 23.2621H120.445V17.8182H118.327V28Z" fill="white"></path><path d="M26.4983 12.0042L23.8817 12C20.942 12 19.0423 13.9319 19.0423 16.922V19.1914H16.4114C16.1841 19.1914 16 19.3741 16 19.5994V22.8875C16 23.1128 16.1843 23.2953 16.4114 23.2953H19.0423V31.5922C19.0423 31.8175 19.2264 32 19.4537 32H22.8863C23.1136 32 23.2977 31.8173 23.2977 31.5922V23.2953H26.3738C26.6011 23.2953 26.7852 23.1128 26.7852 22.8875L26.7865 19.5994C26.7865 19.4912 26.743 19.3876 26.666 19.311C26.589 19.2345 26.484 19.1914 26.3749 19.1914H23.2977V17.2676C23.2977 16.343 23.52 15.8736 24.7352 15.8736L26.4979 15.873C26.725 15.873 26.9091 15.6903 26.9091 15.4651V12.412C26.9091 12.1871 26.7252 12.0046 26.4983 12.0042Z" fill="white"></path></svg>