<svg width="180" height="45" viewBox="0 0 180 45" fill="none" xmlns="http://www.w3.org/2000/svg"><rect x="0.5" y="0.5" width="179" height="44" rx="22" fill="white" stroke="#B2B2B2"></rect><path d="M75.3248 21.1094H77.5123C77.2339 19.0959 75.4591 17.679 73.1572 17.679C70.4676 17.679 68.3944 19.6179 68.3944 22.919C68.3944 26.1406 70.3334 28.1392 73.202 28.1392C75.7723 28.1392 77.6068 26.5135 77.6068 23.8338V22.5511H73.3461V24.1719H75.5336C75.5038 25.4347 74.6437 26.2351 73.2119 26.2351C71.5961 26.2351 70.577 25.027 70.577 22.8991C70.577 20.7812 71.6359 19.5831 73.192 19.5831C74.3007 19.5831 75.0514 20.1548 75.3248 21.1094ZM82.6343 28.1491C84.9511 28.1491 86.3928 26.5632 86.3928 24.2116C86.3928 21.8452 84.9511 20.2642 82.6343 20.2642C80.3176 20.2642 78.8758 21.8452 78.8758 24.2116C78.8758 26.5632 80.3176 28.1491 82.6343 28.1491ZM82.6443 26.5085C81.5754 26.5085 81.0285 25.5291 81.0285 24.1967C81.0285 22.8643 81.5754 21.88 82.6443 21.88C83.6933 21.88 84.2401 22.8643 84.2401 24.1967C84.2401 25.5291 83.6933 26.5085 82.6443 26.5085ZM91.2203 28.1491C93.537 28.1491 94.9788 26.5632 94.9788 24.2116C94.9788 21.8452 93.537 20.2642 91.2203 20.2642C88.9035 20.2642 87.4617 21.8452 87.4617 24.2116C87.4617 26.5632 88.9035 28.1491 91.2203 28.1491ZM91.2302 26.5085C90.1613 26.5085 89.6144 25.5291 89.6144 24.1967C89.6144 22.8643 90.1613 21.88 91.2302 21.88C92.2792 21.88 92.8261 22.8643 92.8261 24.1967C92.8261 25.5291 92.2792 26.5085 91.2302 26.5085ZM99.7963 30.973C101.979 30.973 103.53 29.9787 103.53 28.0746V20.3636H101.427V21.6463H101.347C101.064 21.0249 100.443 20.2642 99.1649 20.2642C97.4894 20.2642 96.0725 21.5668 96.0725 24.1669C96.0725 26.7074 97.4497 27.8906 99.1698 27.8906C100.388 27.8906 101.069 27.2791 101.347 26.6477H101.437V28.0447C101.437 29.044 100.766 29.4517 99.846 29.4517C98.9113 29.4517 98.439 29.044 98.265 28.6314L96.3062 28.8949C96.5597 30.0483 97.738 30.973 99.7963 30.973ZM99.841 26.2997C98.8019 26.2997 98.2352 25.4744 98.2352 24.157C98.2352 22.8594 98.792 21.9496 99.841 21.9496C100.87 21.9496 101.447 22.8196 101.447 24.157C101.447 25.5043 100.86 26.2997 99.841 26.2997ZM107.333 17.8182H105.215V28H107.333V17.8182ZM112.51 28.1491C114.399 28.1491 115.672 27.2294 115.97 25.8125L114.011 25.6832C113.797 26.2649 113.251 26.5682 112.545 26.5682C111.486 26.5682 110.815 25.8672 110.815 24.7287V24.7237H116.015V24.142C116.015 21.5469 114.444 20.2642 112.425 20.2642C110.178 20.2642 108.722 21.8601 108.722 24.2166C108.722 26.6378 110.158 28.1491 112.51 28.1491ZM110.815 23.4112C110.859 22.5412 111.521 21.8452 112.46 21.8452C113.38 21.8452 114.016 22.5014 114.021 23.4112H110.815Z" fill="#2C3E50"></path><path d="M22.4324 25.0863L21.7362 27.6852L19.1918 27.739C18.4313 26.3286 18 24.7149 18 23C18 21.3418 18.4033 19.778 19.1181 18.4011H19.1187L21.384 18.8164L22.3763 21.0681C22.1686 21.6736 22.0554 22.3236 22.0554 23C22.0555 23.7341 22.1885 24.4374 22.4324 25.0863Z" fill="#FBBB00"></path><path d="M37.8252 21.1319C37.94 21.7368 37.9999 22.3615 37.9999 23C37.9999 23.7159 37.9246 24.4143 37.7812 25.0879C37.2944 27.3802 36.0224 29.3819 34.2604 30.7984L34.2598 30.7978L31.4065 30.6522L31.0027 28.1313C32.1719 27.4456 33.0857 26.3725 33.567 25.0879H28.2197V21.1319H33.645H37.8252Z" fill="#518EF8"></path><path d="M34.2598 30.7978L34.2603 30.7984C32.5466 32.1758 30.3697 33 27.9999 33C24.1917 33 20.8807 30.8714 19.1917 27.739L22.4323 25.0863C23.2768 27.3401 25.451 28.9445 27.9999 28.9445C29.0955 28.9445 30.1219 28.6484 31.0026 28.1313L34.2598 30.7978Z" fill="#28B446"></path><path d="M34.383 15.3022L31.1434 17.9544C30.2319 17.3846 29.1544 17.0555 28 17.0555C25.3934 17.0555 23.1786 18.7335 22.3764 21.0681L19.1187 18.4011H19.1182C20.7825 15.1923 24.1352 13 28 13C30.4264 13 32.6511 13.8643 34.383 15.3022Z" fill="#F14336"></path></svg>