<svg width="44" height="44" viewBox="0 0 44 44" fill="none" xmlns="http://www.w3.org/2000/svg"><path d="M27 25.4001C26.3667 25.4001 25.8 25.6501 25.3667 26.0417L19.425 22.5834C19.4667 22.3917 19.5 22.2001 19.5 22.0001C19.5 21.8001 19.4667 21.6084 19.425 21.4167L25.3 17.9917C25.75 18.4084 26.3417 18.6667 27 18.6667C28.3833 18.6667 29.5 17.5501 29.5 16.1667C29.5 14.7834 28.3833 13.6667 27 13.6667C25.6167 13.6667 24.5 14.7834 24.5 16.1667C24.5 16.3667 24.5333 16.5584 24.575 16.7501L18.7 20.1751C18.25 19.7584 17.6583 19.5001 17 19.5001C15.6167 19.5001 14.5 20.6167 14.5 22.0001C14.5 23.3834 15.6167 24.5001 17 24.5001C17.6583 24.5001 18.25 24.2417 18.7 23.8251L24.6333 27.2917C24.5917 27.4667 24.5667 27.6501 24.5667 27.8334C24.5667 29.1751 25.6583 30.2667 27 30.2667C28.3417 30.2667 29.4333 29.1751 29.4333 27.8334C29.4333 26.4917 28.3417 25.4001 27 25.4001ZM27 15.3334C27.4583 15.3334 27.8333 15.7084 27.8333 16.1667C27.8333 16.6251 27.4583 17.0001 27 17.0001C26.5417 17.0001 26.1667 16.6251 26.1667 16.1667C26.1667 15.7084 26.5417 15.3334 27 15.3334ZM17 22.8334C16.5417 22.8334 16.1667 22.4584 16.1667 22.0001C16.1667 21.5417 16.5417 21.1667 17 21.1667C17.4583 21.1667 17.8333 21.5417 17.8333 22.0001C17.8333 22.4584 17.4583 22.8334 17 22.8334ZM27 28.6834C26.5417 28.6834 26.1667 28.3084 26.1667 27.8501C26.1667 27.3917 26.5417 27.0167 27 27.0167C27.4583 27.0167 27.8333 27.3917 27.8333 27.8501C27.8333 28.3084 27.4583 28.6834 27 28.6834Z" fill="#9E9E9E"></path><rect x="1" y="1" width="42" height="42" rx="21" stroke="#9E9E9E" stroke-width="2"></rect></svg>