<svg xmlns="http://www.w3.org/2000/svg" width="12" height="15" viewBox="0 0 12 15" fill="none">
<path id="Vector" d="M10 10.2199C9.49333 10.2199 9.04 10.4199 8.69333 10.7333L3.94 7.96659C3.97333 7.81325 4 7.65992 4 7.49992C4 7.33992 3.97333 7.18659 3.94 7.03325L8.64 4.29325C9 4.62659 9.47333 4.83325 10 4.83325C11.1067 4.83325 12 3.93992 12 2.83325C12 1.72659 11.1067 0.833252 10 0.833252C8.89333 0.833252 8 1.72659 8 2.83325C8 2.99325 8.02667 3.14659 8.06 3.29992L3.36 6.03992C3 5.70659 2.52667 5.49992 2 5.49992C0.893333 5.49992 0 6.39325 0 7.49992C0 8.60659 0.893333 9.49992 2 9.49992C2.52667 9.49992 3 9.29325 3.36 8.95992L8.10667 11.7333C8.07333 11.8733 8.05333 12.0199 8.05333 12.1666C8.05333 13.2399 8.92667 14.1133 10 14.1133C11.0733 14.1133 11.9467 13.2399 11.9467 12.1666C11.9467 11.0933 11.0733 10.2199 10 10.2199ZM10 2.16659C10.3667 2.16659 10.6667 2.46659 10.6667 2.83325C10.6667 3.19992 10.3667 3.49992 10 3.49992C9.63333 3.49992 9.33333 3.19992 9.33333 2.83325C9.33333 2.46659 9.63333 2.16659 10 2.16659ZM2 8.16659C1.63333 8.16659 1.33333 7.86659 1.33333 7.49992C1.33333 7.13325 1.63333 6.83325 2 6.83325C2.36667 6.83325 2.66667 7.13325 2.66667 7.49992C2.66667 7.86659 2.36667 8.16659 2 8.16659ZM10 12.8466C9.63333 12.8466 9.33333 12.5466 9.33333 12.1799C9.33333 11.8133 9.63333 11.5133 10 11.5133C10.3667 11.5133 10.6667 11.8133 10.6667 12.1799C10.6667 12.5466 10.3667 12.8466 10 12.8466Z" fill="black"/>
</svg>