<svg xmlns="http://www.w3.org/2000/svg" width="14" height="13" viewBox="0 0 14 13" fill="none">
<path d="M9.99992 0.5C8.83992 0.5 7.72659 1.04 6.99992 1.89333C6.27325 1.04 5.15992 0.5 3.99992 0.5C1.94659 0.5 0.333252 2.11333 0.333252 4.16667C0.333252 6.68667 2.59992 8.74 6.03325 11.86L6.99992 12.7333L7.96659 11.8533C11.3999 8.74 13.6666 6.68667 13.6666 4.16667C13.6666 2.11333 12.0533 0.5 9.99992 0.5ZM7.06659 10.8667L6.99992 10.9333L6.93325 10.8667C3.75992 7.99333 1.66659 6.09333 1.66659 4.16667C1.66659 2.83333 2.66659 1.83333 3.99992 1.83333C5.02659 1.83333 6.02659 2.49333 6.37992 3.40667H7.62659C7.97325 2.49333 8.97325 1.83333 9.99992 1.83333C11.3333 1.83333 12.3333 2.83333 12.3333 4.16667C12.3333 6.09333 10.2399 7.99333 7.06659 10.8667Z" fill="black"/>
</svg>