<svg width="32" height="32" viewBox="0 0 32 32" fill="none" xmlns="http://www.w3.org/2000/svg"><circle cx="16" cy="16" r="16" fill="#EFB138"></circle><path d="M23.8667 12.7999C23.8667 12.7999 23.7333 11.6666 23.2 11.1999C22.6 10.5332 21.9333 10.5332 21.6 10.5332C19.3333 10.3999 16 10.3999 16 10.3999C16 10.3999 12.6667 10.3999 10.4 10.5332C10.0667 10.5999 9.4 10.5999 8.8 11.1999C8.33333 11.6666 8.13333 12.7999 8.13333 12.7999C8.13333 12.7999 8 14.0666 8 15.3999V16.5999C8 17.8666 8.13333 19.1999 8.13333 19.1999C8.13333 19.1999 8.26667 20.3332 8.8 20.7999C9.4 21.4666 10.2 21.3999 10.5333 21.4666C11.8 21.5999 16 21.5999 16 21.5999C16 21.5999 19.3333 21.5999 21.6 21.3999C21.9333 21.3332 22.6 21.3332 23.2 20.7332C23.6667 20.2666 23.8667 19.1332 23.8667 19.1332C23.8667 19.1332 24 17.8666 24 16.5332V15.3332C24 14.0666 23.8667 12.7999 23.8667 12.7999ZM14.3333 18.0666V13.5999L18.6667 15.8666L14.3333 18.0666Z" fill="white"></path></svg>